<?xml version="1.0" standalone="no"?><!DOCTYPE svg PUBLIC "-//W3C//DTD SVG 1.1//EN" "http://www.w3.org/Graphics/SVG/1.1/DTD/svg11.dtd"><svg t="1744271565066" class="icon" viewBox="0 0 1024 1024" version="1.1" xmlns="http://www.w3.org/2000/svg" p-id="3277" xmlns:xlink="http://www.w3.org/1999/xlink" width="200" height="200"><path d="M367.9232 108.3904a85.376 85.376 0 0 1 85.376 85.376v137.728a85.376 85.376 0 0 1 118.3232 35.5328 85.376 85.376 0 0 1 127.9744 29.184 85.376 85.376 0 0 1 136.3712 65.1264h0.384v240.64c0 48.512-23.3472 95.488-64.8704 143.9232-26.368 30.7968-70.912 48.896-132.864 55.936l-2.7392 0.1536h-193.8944a206.848 206.848 0 0 1-23.6288-1.152 166.8864 166.8864 0 0 1-37.9904-8.2944 118.5792 118.5792 0 0 1-33.2288-17.664l-4.736-3.84c-21.9904-18.2784-61.952-59.392-121.2928-124.4672l-2.1248-2.688c-20.5824-30.208-31.3344-56.448-31.3344-79.872 0-23.552 10.8544-49.5104 32.8704-80.4352l62.0288-73.472V193.7664a85.376 85.376 0 0 1 85.376-85.376z m0 48.768c-20.1984 0-36.5824 16.384-36.5824 36.608l-0.0256 330.24 1.9712 1.664-74.24 87.7312c-15.4112 21.7856-22.6048 38.9888-22.6048 50.6112 0 10.8288 6.2208 26.8544 19.4048 47.2064l2.56 3.8144 29.7984 32.4096c42.496 45.7728 71.68 75.0592 86.7328 87.2192l1.9456 1.536c5.504 4.224 12.1088 7.68 19.6608 10.3168 14.7712 5.1968 28.8 6.656 45.44 6.656h192.3072l7.1424-0.8448c43.4688-5.9136 73.3184-17.92 90.0352-34.9184l2.9696-3.2512c34.6624-40.4224 53.12-77.5936 53.12-112.2048v-216.7552h-0.3328v-20.5824a36.608 36.608 0 1 0-73.1648 0v20.5824h-54.016v-50.3296a36.608 36.608 0 0 0-73.216 0v50.3296h-54.7584l0.0256-79.4624a36.608 36.608 0 1 0-73.1904 0v79.4624h-54.4V193.7664c0-20.224-16.384-36.608-36.5824-36.608z" p-id="3278"></path></svg>