<?xml version="1.0" standalone="no"?><!DOCTYPE svg PUBLIC "-//W3C//DTD SVG 1.1//EN" "http://www.w3.org/Graphics/SVG/1.1/DTD/svg11.dtd"><svg t="1744271569647" class="icon" viewBox="0 0 1024 1024" version="1.1" xmlns="http://www.w3.org/2000/svg" p-id="3433" xmlns:xlink="http://www.w3.org/1999/xlink" width="200" height="200"><path d="M512.2304 117.7344a82.432 82.432 0 0 1 78.848 71.3216 82.432 82.432 0 0 1 136.448 71.7312l-14.848 120.4736a82.432 82.432 0 0 1 112.1792 76.9024l-0.0256 22.7072h0.3328v232.32c0 46.848-22.5536 92.2368-62.6176 139.008-25.4976 29.696-68.5056 47.1808-128.2816 53.9648l-2.6624 0.1536H444.416c-8.192 0-14.464-0.2048-22.8352-1.1008a161.1264 161.1264 0 0 1-36.6848-8.0128 114.4832 114.4832 0 0 1-32.0512-17.0496l-4.7872-3.84c-21.248-17.7408-59.776-57.3696-116.9152-120.064l-2.048-2.56c-19.8656-29.1584-30.2592-54.528-30.2592-77.1328 0-22.7584 10.496-47.7952 31.744-77.6704l63.616-75.3408-15.5136-296.3712a82.432 82.432 0 0 1 151.3472-49.408 82.3808 82.3808 0 0 1 82.2016-60.032z m-1.6384 47.0784a35.328 35.328 0 0 0-36.5568 34.048l-10.6496 305.0496h-52.2752L396.288 221.0048a35.328 35.328 0 0 0-70.5536 3.6864l20.1472 384.512h-47.1808l-0.9216-16.9728-30.0032 35.456c-14.8736 21.0688-21.8368 37.632-21.8368 48.8704 0 10.3936 5.9136 25.728 18.4832 45.184l2.7392 4.1216 29.7984 32.3584a2292.5056 2292.5056 0 0 0 48.8448 51.2256l8.4992 8.4992c10.752 10.624 19.2 18.4064 25.2672 23.296l1.9712 1.5872c5.2992 4.0704 11.6736 7.3728 18.9952 9.9328 14.2336 5.0176 27.8016 6.4512 43.8784 6.4512h185.5232l7.5008-0.896c41.5488-5.7088 70.144-17.2288 86.272-33.4848l3.072-3.328c33.4336-38.9888 51.2768-74.88 51.2768-108.288l-0.0256-209.3056h-0.3072v-45.7472a35.328 35.328 0 0 0-70.656 0v45.7472h-56.8832l30.5408-248.832a35.328 35.328 0 0 0-70.144-8.6272l-28.4672 231.936-0.896 25.5232h-49.7152l3.584-29.1072 9.5744-273.4592a35.328 35.328 0 0 0-34.0736-36.5312z" p-id="3434"></path></svg>