<?xml version="1.0" standalone="no"?><!DOCTYPE svg PUBLIC "-//W3C//DTD SVG 1.1//EN" "http://www.w3.org/Graphics/SVG/1.1/DTD/svg11.dtd"><svg t="1744271554142" class="icon" viewBox="0 0 1024 1024" version="1.1" xmlns="http://www.w3.org/2000/svg" p-id="2965" xmlns:xlink="http://www.w3.org/1999/xlink" width="200" height="200"><path d="M361.344 140.8c26.368 0 49.8688 12.3904 64.9472 31.6928a82.3552 82.3552 0 0 1 128.1024 14.6944 82.432 82.432 0 0 1 131.8144 36.7616 82.4064 82.4064 0 0 1 126.9248 69.2992v211.2512l-0.512-0.0256v209.2032c0 46.6176-22.4512 91.8272-62.4128 138.4192-25.3184 29.5424-68.096 46.9248-127.6928 53.6832l-2.56 0.1536h-187.136c-8.1664 0-14.4128-0.2304-22.7328-1.1008a160.256 160.256 0 0 1-36.48-7.9616 113.664 113.664 0 0 1-31.8464-16.9216l-4.7616-3.84c-21.1968-17.664-59.6992-57.2928-116.7616-119.9104l-1.9968-2.5088c-19.7632-29.0048-30.1056-54.2208-30.1056-76.6208 0-22.5536 10.4448-47.4368 31.5392-77.1072l59.2384-70.144V223.2064a82.4064 82.4064 0 0 1 82.432-82.4064z m0 45.4656c-20.4032 0-36.9408 16.5376-36.9408 36.9408v317.3888l2.8672 2.432-2.8928 3.3792v84.1728l-45.44 0.0256v-30.464l-23.3472 27.6224c-14.976 21.1456-21.9904 37.888-21.9904 49.3056 0 10.5472 5.9904 26.0096 18.6112 45.568l2.7392 4.1472 29.8752 32.512c38.4768 41.3952 65.536 68.6592 80.5376 81.28l4.1216 3.328c5.376 4.1216 11.8272 7.4752 19.2 10.0864 14.336 5.0432 27.9808 6.4768 44.1344 6.4768h185.7536l7.3216-0.9216c41.728-5.7088 70.4512-17.3056 86.7072-33.6896l3.072-3.328c33.5872-39.168 51.4816-75.2128 51.4816-108.8512v-232.2432h0.4608l0.0512-188.16c0-19.2-14.6432-34.9952-33.3824-36.7872l-3.584-0.1536c-20.3776 0-36.9152 16.5376-36.9152 36.9408v211.2H644.864V249.8048c0-19.2-14.6432-34.9696-33.3568-36.7616l-3.584-0.1792c-20.3776 0-36.9152 16.5376-36.9152 36.9408v254.6688h-49.6128V230.8096c0-19.2-14.6432-34.9952-33.3824-36.7872l-3.5584-0.1792c-20.3776 0-36.9408 16.5376-36.9408 36.9408v273.6896h-49.2544V223.2064c0-19.2-14.6432-34.9952-33.3568-36.7616l-3.584-0.1792z" p-id="2966"></path></svg>