<?xml version="1.0" standalone="no"?><!DOCTYPE svg PUBLIC "-//W3C//DTD SVG 1.1//EN" "http://www.w3.org/Graphics/SVG/1.1/DTD/svg11.dtd"><svg t="1744271549022" class="icon" viewBox="0 0 1024 1024" version="1.1" xmlns="http://www.w3.org/2000/svg" p-id="2809" xmlns:xlink="http://www.w3.org/1999/xlink" width="200" height="200"><path d="M96.512 546.5856c12.3648-12.3392 52.5824-29.696 93.4912-29.696 72.4736 0 105.0112 36.4288 146.432 77.8752V195.5328a77.9776 77.9776 0 0 1 77.7472-77.7216c14.9504 0 28.8512 4.48 40.7552 11.8784C465.3824 99.0976 494.1824 76.8 528.1792 76.8c33.9968 0 62.7712 22.2976 73.2672 52.864a76.8 76.8 0 0 1 40.6528-11.8528c34.0992 0 62.8992 22.3232 73.3184 52.992a76.6464 76.6464 0 0 1 40.7808-11.9296 77.952 77.952 0 0 1 77.7472 77.7472v442.1888C833.9456 827.0336 713.7792 947.2 565.504 947.2a267.008 267.008 0 0 1-184.9856-74.2912l-0.0256 0.384L96.512 589.2608a30.1056 30.1056 0 0 1 0-42.6752z m312.6528 296.32a225.8176 225.8176 0 0 0 156.3648 62.7968c125.184 0 226.944-101.7856 226.944-226.944V236.6208a36.352 36.352 0 0 0-36.2752-36.2752 36.352 36.352 0 0 0-36.2752 36.2752v233.5232a20.736 20.736 0 0 1-41.472 0L678.4 195.4816a36.352 36.352 0 0 0-36.2752-36.2752 36.2752 36.2752 0 0 0-36.1728 35.9168v275.0208a20.736 20.736 0 0 1-41.472 0c-0.0768-328.4992 0-271.616 0-315.648a36.352 36.352 0 0 0-36.2752-36.2752 36.352 36.352 0 0 0-36.2752 36.2752v315.648a20.736 20.736 0 0 1-41.472 0V195.5328a36.352 36.352 0 0 0-36.2496-36.2752c-19.968 0-36.2752 16.256-36.2752 36.2752v419.2256a40.96 40.96 0 0 1-23.6288 37.0688 20.6848 20.6848 0 0 1-23.5264-4.096c-51.8912-51.9168-78.3104-89.3184-140.7488-89.3184-18.688 0-36.9664 4.1472-53.632 12.1088l272.7936 272.384z" p-id="2810"></path></svg>