<?xml version="1.0" standalone="no"?><!DOCTYPE svg PUBLIC "-//W3C//DTD SVG 1.1//EN" "http://www.w3.org/Graphics/SVG/1.1/DTD/svg11.dtd"><svg t="1744271544143" class="icon" viewBox="0 0 1024 1024" version="1.1" xmlns="http://www.w3.org/2000/svg" p-id="2653" xmlns:xlink="http://www.w3.org/1999/xlink" width="200" height="200"><path d="M512 112.768c47.2576 72.832 43.6736 149.888-9.9328 226.048l-28.5696 39.3216h115.7376a82.816 82.816 0 0 1 60.6976 139.1616c24.832 14.848 41.472 42.0352 41.472 73.1136 0 22.6816-8.832 43.264-23.296 58.5472 14.464 15.2064 23.296 35.8144 23.296 58.4704 0 16.2816-4.5568 31.488-12.4672 44.3904h164.7104a85.1968 85.1968 0 0 1 0 170.3936H496.5632c-3.2768 0-6.528-0.2048-9.728-0.5632-1.792 0.4096-3.6608 0.6656-5.5808 0.7168l-29.568 0.6144a2057.1136 2057.1136 0 0 1-101.632-0.6144l-5.0432-0.6656c-91.648-21.12-178.1504-88.2688-229.8368-213.6064-43.2384-104.8832-16.128-210.9952 78.592-315.0336l148.5568-154.5728A10023.6288 10023.6288 0 0 1 439.296 139.264l9.0368-9.0368 13.7472-13.4912c4.736-4.5568 8.2432-7.808 10.5216-9.728a26.5472 26.5472 0 0 1 39.424 5.7856zM482.688 170.752l-39.168 39.7056a20182.8864 20182.8864 0 0 0-103.6288 107.008l-107.3664 111.8208c-81.3568 89.3696-103.04 174.3104-68.3008 258.56 43.4176 105.3184 112.6656 161.28 185.8048 180.4544l4.5568 1.1008 8.192 0.256c16.9472 0.4352 35.3792 0.64 55.2448 0.5632 0-0.1024-0.0512-0.2304-0.1024-0.3328h34.56l27.4176-0.5632c2.0992-0.0512 4.1216 0.128 6.0672 0.512h85.248l-0.1024-0.7168h272.512a32.128 32.128 0 1 0 0-64.2304H562.944l-8.2944-65.3312h51.5584a32.128 32.128 0 0 0 3.4816-64.0512l-3.4816 0.1024h-59.6992l-6.784-53.376h66.4832l3.4816 0.128a32.128 32.128 0 0 0-0.2048-63.8976l-3.2768-0.1536h-71.4752l-3.1232 0.1536-8.6272-67.7376h66.2272a29.7472 29.7472 0 0 0 3.2512-59.3408l-3.2512-0.1536h-73.7792l-0.0768-0.512-144.7168-0.0512a83.072 83.072 0 0 1 27.5968-36.096c0.7936-3.072 2.2016-6.0672 4.1728-8.832l56.448-77.7984c32.384-46.0032 40.8832-88.96 25.984-131.4816l-2.1504-5.7088z" p-id="2654"></path></svg>