<?xml version="1.0" standalone="no"?><!DOCTYPE svg PUBLIC "-//W3C//DTD SVG 1.1//EN" "http://www.w3.org/Graphics/SVG/1.1/DTD/svg11.dtd"><svg t="1744271538221" class="icon" viewBox="0 0 1024 1024" version="1.1" xmlns="http://www.w3.org/2000/svg" p-id="2497" xmlns:xlink="http://www.w3.org/1999/xlink" width="200" height="200"><path d="M526.7712 135.5264a27.8528 27.8528 0 0 0-4.352 5.5296 170.9568 170.9568 0 0 0 23.808 212.1216l30.336 30.3104H168.8832a85.9392 85.9392 0 0 0-85.6832 85.6832 85.9392 85.9392 0 0 0 85.6832 85.6832h188.5184a84.8384 84.8384 0 0 0-31.6928 65.8944c0.0256 17.8432 5.6832 35.2256 16.128 49.664l106.8288 184.5504a85.3248 85.3248 0 0 0 73.8304 42.6752h140.928c153.216 0 277.376-124.16 277.376-277.4016a275.968 275.968 0 0 0-76.8-191.1808l0.4096-0.0256-4.7616-4.7616-0.2048-0.2048L570.88 135.552a31.104 31.104 0 0 0-44.1088 0zM833.024 458.624a233.3696 233.3696 0 0 1 64.9216 161.6128c0 129.3568-105.216 234.5472-234.5472 234.5472h-140.928c-15.0784 0-28.7488-8.0128-36.5824-21.4784l-109.2096-187.8272a42.4192 42.4192 0 0 1-8.1408-24.6784c0-17.152 9.984-27.8528 15.9488-32.7424l46.592-38.0416a21.4272 21.4272 0 0 0-13.5168-37.9904H168.8832a42.9056 42.9056 0 0 1-42.8288-42.8544c0-23.6032 19.2256-42.8544 42.8288-42.8544H597.248c18.2016 0 33.5104-11.4432 39.6288-27.4944a18.7648 18.7648 0 0 0-4.2752-19.9168l-56.0128-56.0128a127.488 127.488 0 0 1-37.5808-90.752c0-19.328 4.3008-38.2208 12.544-55.424l281.472 281.9072z" p-id="2498"></path></svg>