<?xml version="1.0" standalone="no"?><!DOCTYPE svg PUBLIC "-//W3C//DTD SVG 1.1//EN" "http://www.w3.org/Graphics/SVG/1.1/DTD/svg11.dtd"><svg t="1739950338879" class="icon" viewBox="0 0 1024 1024" version="1.1" xmlns="http://www.w3.org/2000/svg" p-id="6175" xmlns:xlink="http://www.w3.org/1999/xlink" width="200" height="200"><path d="M504.96 0.256c24.2944-0.9728 48.5632 0.9728 70.912 3.8912 5.8368 0.9728 10.6752 1.9456 16.512 2.8928l20.4032 5.8368c22.3232 7.7824 41.7536 19.4304 55.3472 35.9424 7.7824 10.6752 14.592 21.376 19.456 32.0512 19.7888 44.8 17.4592 98.7392 16.64 175.4368 22.272 5.248 69.6832 50.0224 96.1536 76.4928l6.8608 6.8608 13.0304 13.056c85.8624 86.0928 108.1088 111.5648 108.1088 159.2832v25.6l-223.2832-198.4768c0.256 80.4864 1.1264 211.968 1.2288 333.2608v43.008a9665.8944 9665.8944 0 0 1-1.28 170.6752c0 39.8336-1.9456 66.048-3.8912 72.8576-3.8656 12.6208-15.5392 25.2416-36.8896 35.9424-26.24 12.6208-66.048 23.296-122.3936 27.1872-11.648 0.9728-24.2944 1.9456-36.9152 1.9456h-10.6752c-8.7552 0-18.4576 0-26.24-0.9728-55.3472-3.8912-96.1536-13.5936-122.368-27.1872-20.4032-10.7008-33.024-23.296-36.9152-35.9424-1.9456-5.8368-2.9184-33.024-3.8912-72.8576-1.3312-66.944-1.2288-169.728-0.768-272.6912l0.1792-29.3632c0.4352-85.0176 1.1264-167.8336 1.408-228.1472L102.4 537.6v-25.6c0-48.896 23.3216-74.4192 114.5088-165.7088L230.4 332.8c19.84-19.84 51.4304-49.92 75.392-66.0224-0.64-82.2784-4.1472-139.1104 16.5632-185.9072 4.864-10.6752 11.648-21.376 19.4304-32.0512 12.6208-16.512 32.0512-28.16 55.3728-35.9424 5.8112-1.9456 13.568-3.8912 20.3776-5.8368 4.864-0.9472 10.7008-1.92 16.512-2.8928A409.1648 409.1648 0 0 1 494.2848 0.256z m-108.8 794.5216c-7.7568-1.9456-14.5408 2.9184-16.4864 10.6752l-22.3488 102.9632c-0.9728 5.8368 0.9728 11.648 6.8096 14.592 1.9456 0.9472 62.1568 33.024 145.664 33.024 83.5584 0 133.0944-32.0768 135.04-33.024 4.864-2.944 6.784-8.7552 5.8112-14.592l-22.3232-102.9632c-1.9456-7.7568-8.7552-12.6208-16.512-10.6752a472.576 472.576 0 0 1-107.8272 14.5664 472.576 472.576 0 0 1-107.8016-14.592z m107.8272-618.7264c-19.4304 0.9728-39.808 1.9456-59.2384 4.864-41.7792 5.8368-78.6688 15.5392-91.3152 31.0784-16.512 19.4304 12.6464 157.3632 22.3488 158.336 8.7296 0.9472 46.6176-13.6192 120.448-14.592h14.5664c73.8048 0.9728 111.6928 15.5392 121.3952 14.592 9.728-0.9728 38.8608-138.9056 22.3488-158.336-13.5936-15.5392-49.536-25.2416-91.2896-31.0784-19.456-2.9184-39.8336-3.8912-59.264-4.864z" p-id="6176"></path></svg>