<?xml version="1.0" standalone="no"?><!DOCTYPE svg PUBLIC "-//W3C//DTD SVG 1.1//EN" "http://www.w3.org/Graphics/SVG/1.1/DTD/svg11.dtd"><svg t="1739425797239" class="icon" viewBox="0 0 1024 1024" version="1.1" xmlns="http://www.w3.org/2000/svg" p-id="1830" xmlns:xlink="http://www.w3.org/1999/xlink" width="200" height="200"><path d="M230.4 537.6a25.6 25.6 0 0 1 0 51.2H128a25.6 25.6 0 0 1 0-51.2h102.4z m31.5392-150.1696a25.6 25.6 0 0 1-25.6 44.3392l-88.6784-51.2a25.6 25.6 0 0 1 25.6-44.3392l88.6784 51.2z m0 351.5392a25.6 25.6 0 0 0-25.6-44.3392l-88.6784 51.2a25.6 25.6 0 0 0 25.6 44.3392l88.6784-51.2zM355.6352 384c56.3968 0 143.7184 57.7792 143.7184 166.4s-87.296 166.4-143.7184 166.4c-56.3968 0-37.8112-57.7792-37.8112-166.4l-0.1024-14.4896C316.288 436.6592 301.7984 384 355.6352 384z m11.6992 52.3776l-1.1776-0.2048-0.0512 3.8656v5.3248c0.0512 6.4512 0.256 14.7456 0.6656 25.7024l1.408 35.84c0.4864 13.3888 0.768 24.6784 0.8192 36.4032v7.0912c0 14.3872-0.256 27.4176-0.8192 43.52l-1.7408 45.9264c-0.1536 4.608-0.256 8.6784-0.3072 12.2112l0.0256 12.544 1.1776-0.1792c38.0416-7.552 78.0544-50.56 80.6912-108.032l0.128-5.9904c0-60.4672-41.472-106.1888-80.8192-114.0224zM793.6 537.6a25.6 25.6 0 0 0 0 51.2h102.4a25.6 25.6 0 0 0 0-51.2h-102.4z m-5.9392-150.1696a25.6 25.6 0 0 0 25.6 44.3392l88.6784-51.2a25.6 25.6 0 0 0-25.6-44.3392l-88.6784 51.2z m0 351.5392a25.6 25.6 0 0 1 25.6-44.3392l88.6784 51.2a25.6 25.6 0 0 1-25.6 44.3392l-88.6784-51.2zM688.9984 384c-56.3968 0-143.7184 57.7792-143.7184 166.4s87.3216 166.4 143.7184 166.4 37.8112-57.7792 37.8112-166.4l0.128-14.4896c1.408-99.2512 15.872-151.9104-37.9392-151.9104z m-11.6992 52.3776l1.1776-0.2048 0.0512 3.8656v5.3248c-0.0256 6.4512-0.256 14.7456-0.6656 25.7024l-1.408 35.84c-0.4864 13.3888-0.7424 24.6784-0.8192 36.4032v7.0912c0 14.3872 0.256 27.4176 0.8192 43.52l1.7664 45.9264c0.128 4.608 0.2304 8.6784 0.256 12.2112v12.544l-1.1776-0.1792c-38.0416-7.552-78.0544-50.56-80.6656-108.032L596.48 550.4c0-60.4672 41.472-106.1888 80.8192-114.0224z" p-id="1831"></path></svg>