<?xml version="1.0" encoding="UTF-8"?>
<svg width="40px" height="40px" viewBox="0 0 40 40" version="1.1" xmlns="http://www.w3.org/2000/svg" xmlns:xlink="http://www.w3.org/1999/xlink">
    <title>icon_cluster_7</title>
    <g id="icon_cluster_7" stroke="none" stroke-width="1" fill="none" fill-rule="evenodd">
        <path d="M21,27 C23.6102769,27 26.2205539,27.4171559 28.8308308,28.2514676 L28.7652828,28.6081915 C28.7486178,28.7383054 28.730751,28.8691073 28.7119652,29 L28.6783255,29.0003573 C27.8771014,32.3569756 25.7994425,34.9679676 25,36.8333333 C24.7718323,37.099529 24.4384989,37.4884179 24,38 L22,38 C21.3333333,37.2222222 21.3333333,36.4444444 22,35.6666667 L24,31 C24.4150873,30.0314629 24.4425053,29.3644464 24.0822539,28.9989505 L16.9177461,28.9989505 C16.5574947,29.3644464 16.5849127,30.0314629 17,31 L19,35.6666667 C19.6666667,36.4444444 19.6666667,37.2222222 19,38 L17,38 C16.5615011,37.4884179 16.2281677,37.099529 16,36.8333333 C15.1668629,34.8893467 12.9454909,32.1355564 12.227359,28.5719624 C15.1521298,27.5234324 18.0760649,27 21,27 Z M20.5,3 C22.4329966,3 24,4.56700338 24,6.5 C24,7.89578959 23.1829519,9.10074735 22.0010375,9.66269133 L22.0011272,12.0105167 C22.7036137,12.0280575 23.2256557,12.0748547 23.6789597,12.1997046 L12.0490037,23.831396 C11.9995449,24.6823083 11.9913286,25.4278711 12.0068764,26.0677195 C12.0022921,26.1535833 12,26.2421212 12,26.3333333 C12,27.1120268 12.0835297,27.8582365 12.227359,28.5719624 C10.9983093,29.0106367 9.76842394,29.5435854 8.53853854,30.1691433 L7.72182541,30.9852814 C7.33130112,31.3758057 6.69813614,31.3758057 6.30761184,30.9852814 C5.91708755,30.5947571 5.91708755,29.9615921 6.30761184,29.5710678 L12.0490037,23.831396 C12.081879,23.2657935 12.1329763,22.6536447 12.2074288,21.9950568 C12.4799939,19.5840129 13.2362072,15.5789474 15.0568846,13.7894737 C16.5395168,12.3322517 17.1166351,12.0616892 19.0004007,12.0114538 L18.9999667,9.66316861 C17.817511,9.10142984 17,7.89618488 17,6.5 C17,4.56700338 18.5670034,3 20.5,3 Z M29.6421356,7.6507576 C30.0326599,8.04128189 30.0326599,8.67444687 29.6421356,9.06497116 L25.4348036,13.2710722 C25.6044129,13.4245857 25.7847527,13.5966398 25.9809491,13.7894737 C27.8016265,15.5789474 28.4390811,18.5335023 28.8301371,21.9926876 C28.9774577,23.2958492 29.0289509,24.6084779 28.9846167,25.9305736 C28.9938971,26.0496546 28.9992941,26.1754036 28.9999354,26.3068353 C30.9993327,26.9588841 32.9996663,27.8569522 35,29 L35,31 C32.9436103,29.8249202 30.8872206,28.9087427 28.8308308,28.2514676 C28.9394314,27.6359511 29,26.9964195 29,26.3333333 C29,26.3244753 28.9999784,26.3156425 28.9999354,26.3068353 C26.332666,25.4352652 23.666333,25 21,25 C18.028426,25 15.056852,25.5406277 12.085278,26.621883 L25.4348036,13.2710722 C24.7882451,12.6858716 24.2976186,12.3700969 23.6789597,12.1997046 L28.2279221,7.6507576 C28.6184464,7.2602333 29.2516113,7.2602333 29.6421356,7.6507576 Z" id="形状结合" fill="#000000"></path>
    </g>
</svg>