<?xml version="1.0" encoding="UTF-8"?>
<svg width="40px" height="40px" viewBox="0 0 40 40" version="1.1" xmlns="http://www.w3.org/2000/svg" xmlns:xlink="http://www.w3.org/1999/xlink">
    <title>icon_cluster_3</title>
    <g id="icon_cluster_3" stroke="none" stroke-width="1" fill="none" fill-rule="evenodd">
        <path d="M9,21 C9.55228475,21 10,21.4477153 10,22 C10,22.5522847 9.55228475,23 9,23 L5,23 C4.44771525,23 4,22.5522847 4,22 C4,21.4477153 4.44771525,21 5,21 L9,21 Z M10.2320508,15.1339746 C10.7103434,15.410117 10.8742186,16.0217074 10.5980762,16.5 C10.3219338,16.9782926 9.71034343,17.1421678 9.23205081,16.8660254 L5.76794919,14.8660254 C5.28965657,14.589883 5.12578141,13.9782926 5.40192379,13.5 C5.67806616,13.0217074 6.28965657,12.8578322 6.76794919,13.1339746 L10.2320508,15.1339746 Z M10.2320508,28.8660254 C10.7103434,28.589883 10.8742186,27.9782926 10.5980762,27.5 C10.3219338,27.0217074 9.71034343,26.8578322 9.23205081,27.1339746 L5.76794919,29.1339746 C5.28965657,29.410117 5.12578141,30.0217074 5.40192379,30.5 C5.67806616,30.9782926 6.28965657,31.1421678 6.76794919,30.8660254 L10.2320508,28.8660254 Z M13.8922035,15 C16.0950665,15 19.5058399,17.257449 19.5058399,21.5 C19.5058399,25.742551 16.0950665,28 13.8922035,28 C11.6893405,28 12.4149308,25.742551 12.4149308,21.5 L12.4107765,20.9338002 C12.3550185,17.0568905 11.7894706,15 13.8922035,15 Z M14.3491172,17.0462486 L14.3034884,17.038 L14.3012068,17.1890623 L14.3009283,17.3968755 C14.3027178,17.64856 14.3114977,17.9726988 14.3272073,18.4011339 L14.3822806,19.8003616 C14.4008532,20.3239733 14.4111452,20.7649231 14.41406,21.2225951 L14.4149308,21.5 C14.4149308,22.0620035 14.4045677,22.5713044 14.3822806,23.1996384 L14.3138099,24.9937151 C14.3082683,25.1749362 14.3044643,25.3327368 14.3024053,25.471097 L14.3034884,25.961 L14.3491172,25.9537514 C15.8348779,25.6586239 17.3979499,23.9793702 17.5005038,21.7342399 L17.5058399,21.5 C17.5058399,19.1380862 15.886111,17.3515529 14.3491172,17.0462486 Z M31,21 C30.4477153,21 30,21.4477153 30,22 C30,22.5522847 30.4477153,23 31,23 L35,23 C35.5522847,23 36,22.5522847 36,22 C36,21.4477153 35.5522847,21 35,21 L31,21 Z M30.7679492,15.1339746 C30.2896566,15.410117 30.1257814,16.0217074 30.4019238,16.5 C30.6780662,16.9782926 31.2896566,17.1421678 31.7679492,16.8660254 L35.2320508,14.8660254 C35.7103434,14.589883 35.8742186,13.9782926 35.5980762,13.5 C35.3219338,13.0217074 34.7103434,12.8578322 34.2320508,13.1339746 L30.7679492,15.1339746 Z M30.7679492,28.8660254 C30.2896566,28.589883 30.1257814,27.9782926 30.4019238,27.5 C30.6780662,27.0217074 31.2896566,26.8578322 31.7679492,27.1339746 L35.2320508,29.1339746 C35.7103434,29.410117 35.8742186,30.0217074 35.5980762,30.5 C35.3219338,30.9782926 34.7103434,31.1421678 34.2320508,30.8660254 L30.7679492,28.8660254 Z M26.9141247,15 C24.7112617,15 21.3004884,17.257449 21.3004884,21.5 C21.3004884,25.742551 24.7112617,28 26.9141247,28 C29.1169878,28 28.3913975,25.742551 28.3913975,21.5 L28.3955518,20.9338002 C28.4513097,17.0568905 29.0168576,15 26.9141247,15 Z M26.4572111,17.0462486 L26.5028399,17.038 L26.5051215,17.1890623 L26.5054,17.3968755 C26.5036105,17.64856 26.4948305,17.9726988 26.479121,18.4011339 L26.4240476,19.8003616 C26.405475,20.3239733 26.395183,20.7649231 26.3922683,21.2225951 L26.3913975,21.5 C26.3913975,22.0620035 26.4017605,22.5713044 26.4240476,23.1996384 L26.4925184,24.9937151 C26.4980599,25.1749362 26.501864,25.3327368 26.503923,25.471097 L26.5028399,25.961 L26.4572111,25.9537514 C24.9714503,25.6586239 23.4083784,23.9793702 23.3058244,21.7342399 L23.3004884,21.5 C23.3004884,19.1380862 24.9202172,17.3515529 26.4572111,17.0462486 Z" id="形状结合" fill="#000000" fill-rule="nonzero"></path>
    </g>
</svg>