<?xml version="1.0" standalone="no"?><!DOCTYPE svg PUBLIC "-//W3C//DTD SVG 1.1//EN" "http://www.w3.org/Graphics/SVG/1.1/DTD/svg11.dtd"><svg t="1739425756186" class="icon" viewBox="0 0 1024 1024" version="1.1" xmlns="http://www.w3.org/2000/svg" p-id="1320" xmlns:xlink="http://www.w3.org/1999/xlink" width="200" height="200"><path d="M537.6 691.2c66.816 0 133.632 10.6752 200.448 32.0256l-1.664 9.1392c-0.4096 3.328-0.8704 6.6816-1.3568 10.0352h-0.8704c-20.48 85.9392-73.7024 152.7808-94.1568 200.5248L614.4 972.8h-51.2c-17.0752-19.9168-17.0752-39.8336 0-59.7248L614.4 793.6c10.624-24.8064 11.3408-41.8816 2.0992-51.2256h-183.3984c-9.216 9.344-8.5248 26.4192 2.0992 51.2256l51.2 119.4752c17.0752 19.8912 17.0752 39.808 0 59.7248h-51.2l-25.6-29.8752c-21.3248-49.7664-78.208-120.2432-96.5888-211.4816C387.8912 704.5888 462.7712 691.2 537.6 691.2z m-12.8-614.4a89.6 89.6 0 0 1 38.4256 170.5728v60.1088c17.9968 0.4352 31.36 1.6384 42.9568 4.8384L308.4544 610.048c-1.28 21.7856-1.4848 40.8832-1.0752 57.2672a127.5904 127.5904 0 0 0-0.1792 6.784c0 19.9424 2.1504 39.04 5.8112 57.3184a806.2208 806.2208 0 0 0-94.4128 40.8832l-20.9152 20.8896a25.6 25.6 0 1 1-36.1984-36.1984l146.9696-146.944c0.8448-14.464 2.1504-30.1312 4.0448-47.0016 6.9888-61.7216 26.368-164.2496 72.96-210.0736 37.9648-37.2992 52.736-44.2112 100.9408-45.5168V247.3728A89.6 89.6 0 0 1 524.8 76.8z m234.0352 119.04a25.6 25.6 0 0 1 0 36.224l-107.6992 107.6736c4.352 3.9424 8.96 8.3456 13.9776 13.2608 46.592 45.824 62.9248 121.472 72.96 210.0224 3.7376 33.3568 5.0688 66.944 3.9424 100.8128 0.2304 3.0464 0.3584 6.2464 0.384 9.6256 51.2 16.6912 102.4 39.68 153.6 68.9408v51.2c-52.6336-30.08-105.2928-53.5296-157.952-70.3744a282.0864 282.0864 0 0 0 4.352-49.7664C674.1248 651.136 605.8496 640 537.6 640c-76.0832 0-152.1408 13.824-228.224 41.5232l341.76-341.76c-16.5632-15.0016-29.1072-23.0912-44.9536-27.4432l116.4544-116.48a25.6 25.6 0 0 1 36.1984 0z" p-id="1321"></path></svg>