<?xml version="1.0" standalone="no"?><!DOCTYPE svg PUBLIC "-//W3C//DTD SVG 1.1//EN" "http://www.w3.org/Graphics/SVG/1.1/DTD/svg11.dtd"><svg t="1739950308174" class="icon" viewBox="0 0 1024 1024" version="1.1" xmlns="http://www.w3.org/2000/svg" p-id="5215" xmlns:xlink="http://www.w3.org/1999/xlink" width="200" height="200"><path d="M516.9152 527.3344L660.5312 921.6H612.096L468.48 527.3344h48.4352z m-198.4 22.016l4.4032 0.1024 7.8336 1.0752c2.7392 0.64 5.2736 1.4848 7.808 2.56l108.544 34.4576 46.5408 154.6752-178.9696-42.3424-141.952 194.9184c-17.3568 23.6032-50.7904 28.928-74.24 11.4944a53.8112 53.8112 0 0 1-11.4432-74.7008l189.5424-260.6336a52.736 52.736 0 0 1 37.5808-21.3248l4.352-0.256z m438.272-169.472a86.016 86.016 0 0 1 27.3152 117.6576l-129.4848 208.9472a82.7392 82.7392 0 0 1-18.816 21.2736l-65.792-207.6672 69.8112-112.768a84.992 84.992 0 0 1 116.992-27.4432zM482.4576 127.744a189.568 189.568 0 0 1 94.1312 164.0192 189.568 189.568 0 0 1-94.1312 163.9936 187.3408 187.3408 0 0 1-188.288 0 189.568 189.568 0 0 1-94.1312-163.9936A189.568 189.568 0 0 1 294.144 127.744a187.3408 187.3408 0 0 1 188.288 0zM972.8 274.56v47.872l-137.9328 81.92-20.736-35.5328L972.8 274.56zM692.48 158.5408a87.552 87.552 0 0 1 88.0128 0 88.6016 88.6016 0 0 1 44.032 76.6464c0 48.896-39.424 88.5248-88.0384 88.5248-48.5888 0-87.9872-39.6288-87.9872-88.5248 0-31.616 16.768-60.8512 44.0064-76.6464z" p-id="5216"></path></svg>