<?xml version="1.0" encoding="UTF-8"?>
<svg width="40px" height="40px" viewBox="0 0 40 40" version="1.1" xmlns="http://www.w3.org/2000/svg" xmlns:xlink="http://www.w3.org/1999/xlink">
    <title>icon_cluster_4</title>
    <g id="icon_cluster_4" stroke="none" stroke-width="1" fill="none" fill-rule="evenodd">
        <path d="M22.5,10 C24.3639825,10 26.7776066,11.1069582 28.5523795,13.1619584 C29.9866188,14.8226565 31,17.1163219 31,20 C31,22.8836781 29.9866188,25.1773435 28.5523795,26.8380416 C26.7776066,28.8930418 24.3639825,30 22.5,30 C22.0804926,30 21.7466809,29.950755 21.4945772,29.8029925 C21.2910453,29.6836989 21.1668176,29.4921977 21.074714,29.2556284 C20.6718614,28.2208963 20.7902693,26.5593517 20.8849682,24.3279686 C20.9389319,23.0564244 21,21.6120594 21,20 C21,18.3879406 20.9389319,16.9435756 20.8849682,15.6720314 C20.7902693,13.4406483 20.6718614,11.7791037 21.074714,10.7443716 C21.1668176,10.5078023 21.2910453,10.3163011 21.4945772,10.1970075 C21.7466809,10.049245 22.0804926,10 22.5,10 Z" id="椭圆形" stroke="#000000" stroke-width="2"></path>
        <path d="M13,8 C11.6666667,8.58974359 11,9.76923077 11,11.5384615 C11,14.1923077 13,14.1923077 13,16.8461538 C13,19.5 11,19.5 11,22.1538462 C11,24.6719406 13,23.9230769 13,26.5769231 C13,29.2307692 11,30.1153846 11,31" id="路径-15" stroke="#000000" stroke-width="2" stroke-linecap="round" stroke-linejoin="round"></path>
        <path d="M17.5,10.8422711 L17.5,11.7031835 L7.5,17.1577289 L7.5,16.2968165 L17.5,10.8422711 Z" id="矩形" stroke="#000000"></path>
        <path d="M17.5,15.8422711 L17.5,16.7031835 L7.5,22.1577289 L7.5,21.2968165 L17.5,15.8422711 Z" id="矩形" stroke="#000000"></path>
        <path d="M17.5,20.8422711 L17.5,21.7031835 L7.5,27.1577289 L7.5,26.2968165 L17.5,20.8422711 Z" id="矩形" stroke="#000000"></path>
    </g>
</svg>