<?xml version="1.0" standalone="no"?><!DOCTYPE svg PUBLIC "-//W3C//DTD SVG 1.1//EN" "http://www.w3.org/Graphics/SVG/1.1/DTD/svg11.dtd"><svg t="1739950313247" class="icon" viewBox="0 0 1024 1024" version="1.1" xmlns="http://www.w3.org/2000/svg" p-id="5375" xmlns:xlink="http://www.w3.org/1999/xlink" width="200" height="200"><path d="M896 460.8a51.2 51.2 0 0 1 51.2 51.2v256a51.2 51.2 0 0 1-51.2 51.2H332.8a51.2 51.2 0 0 1-51.2-51.2h614.4V460.8z m-102.4-102.4a51.2 51.2 0 0 1 51.2 51.2v256a51.2 51.2 0 0 1-51.2 51.2H230.4a51.2 51.2 0 0 1-51.2-51.2h614.4V358.4zM281.6 204.8v51.2h256V204.8h102.4v51.2h51.2a51.2 51.2 0 0 1 51.2 51.2v256a51.2 51.2 0 0 1-51.2 51.2H128a51.2 51.2 0 0 1-51.2-51.2V307.2a51.2 51.2 0 0 1 51.2-51.2h51.2V204.8h102.4z m409.6 102.4H128v256h563.2V307.2z m-102.4 25.6a25.6 25.6 0 0 1 25.6 25.6l-0.0256 25.5744L640 384a25.6 25.6 0 0 1 0 51.2l-25.6256-0.0256L614.4 460.8a25.6 25.6 0 0 1-51.2 0l-0.0256-25.6256L537.6 435.2a25.6 25.6 0 0 1 0-51.2l25.5744-0.0256L563.2 358.4a25.6 25.6 0 0 1 25.6-25.6z m-307.2 51.2a25.6 25.6 0 0 1 0 51.2H179.2a25.6 25.6 0 0 1 0-51.2h102.4z" p-id="5376"></path></svg>