<?xml version="1.0" standalone="no"?><!DOCTYPE svg PUBLIC "-//W3C//DTD SVG 1.1//EN" "http://www.w3.org/Graphics/SVG/1.1/DTD/svg11.dtd"><svg t="1739425804125" class="icon" viewBox="0 0 1024 1024" version="1.1" xmlns="http://www.w3.org/2000/svg" p-id="1990" xmlns:xlink="http://www.w3.org/1999/xlink" width="200" height="200"><path d="M576 230.4c95.4368 0 243.2 97.792 243.2 281.6s-147.7632 281.6-243.2 281.6c-95.4368 0-64-97.792-64-281.6l-0.1024-18.4064C510.0032 321.6896 483.7888 230.4 576 230.4z m-8.3712 51.1488c-3.2256 0.1024-3.968 0.6912-4.6848 3.2256l-1.9456 8.1664c-2.944 13.9008-3.4304 31.2064-1.9712 75.2384l2.8672 73.7536C562.7904 467.712 563.2 488.832 563.2 512l-0.0768 17.1008a2175.488 2175.488 0 0 1-1.5872 62.848l-2.5088 63.872c-1.4592 44.032-0.9728 61.3376 1.9712 75.264l1.9456 8.1408c1.1264 3.9936 2.3552 3.1744 13.056 3.1744 90.9824 0 192-98.0224 192-230.4 0-129.92-97.3056-226.7648-186.9312-230.2976l-13.44-0.1536z m-211.4048-87.1168a25.6 25.6 0 0 1-13.056 33.792C318.9248 238.9248 307.2 259.6608 307.2 295.3728c0 16.3584 2.4576 25.7536 10.624 38.6304L460.8 256v51.2l-117.3248 64.0512c10.5728 18.2784 14.9248 35.0208 14.9248 60.0064 0 3.0464-0.0768 5.9648-0.2048 8.7808L460.8 384v51.2l-125.056 68.2496c-1.2288 1.7664-2.5088 3.5584-3.84 5.376l-4.2496 5.7856c-16.1792 21.4528-20.4544 30.8992-20.4544 52.5312 0 12.2624 1.28 18.5088 6.3488 25.1648L460.8 512v51.2l-115.968 63.3088c9.3696 14.2848 13.568 30.3104 13.568 53.8624 0 35.4048-10.8544 62.592-30.7456 89.0112l-17.7664 22.1184c-2.5856 3.0976-2.688 2.8416-2.688 2.0992l-0.1792 2.9952A25.6 25.6 0 0 1 256 793.6c0-18.4832 12.416-34.9696 30.7456-55.04 13.696-18.176 20.4544-35.072 20.4544-58.1888 0-14.464-1.6128-21.5552-7.68-29.184L179.2 716.8v-51.2l89.1136-48.64c-8.5248-13.312-12.3136-28.2112-12.3136-49.8176 0-7.68 0.4096-14.5664 1.28-20.9664L179.2 588.8v-51.2l113.4592-61.8752c11.3408-16.128 14.5408-25.7536 14.5408-44.4672 0-15.0016-2.048-24.1408-8.704-35.5072L179.2 460.8v-51.2l93.5936-51.0464C260.864 339.0208 256 321.792 256 295.3728c0-54.8608 22.4256-94.5152 66.432-113.9968a25.6 25.6 0 0 1 33.792 13.056z" p-id="1991"></path></svg>