<?xml version="1.0" standalone="no"?><!DOCTYPE svg PUBLIC "-//W3C//DTD SVG 1.1//EN" "http://www.w3.org/Graphics/SVG/1.1/DTD/svg11.dtd"><svg t="1739950323772" class="icon" viewBox="0 0 1024 1024" version="1.1" xmlns="http://www.w3.org/2000/svg" p-id="5695" xmlns:xlink="http://www.w3.org/1999/xlink" width="200" height="200"><path d="M640 814.7456h32.6144L733.3632 844.8H128l58.496-30.0544H230.4V204.8a51.2 51.2 0 0 1 47.36-51.072L281.6 153.6h307.2l-0.0256 51.2H281.6v256h307.1744L588.8 814.7456V153.6a51.2 51.2 0 0 1 51.2 51.2v171.5712h52.0704l23.9104 86.144 36.608 20.4288 39.1424 140.928-21.3248 34.6368 24.9856 90.0864h44.6208V355.5328l-64.256-32.256-59.776-0.6144-60.5184-30.3872 27.4944-49.3056L870.4 337.1008v441.5488h-98.1504l-103.3472-372.224L640 406.4v408.3456z" p-id="5696"></path></svg>