<?xml version="1.0" standalone="no"?><!DOCTYPE svg PUBLIC "-//W3C//DTD SVG 1.1//EN" "http://www.w3.org/Graphics/SVG/1.1/DTD/svg11.dtd"><svg t="1739950301156" class="icon" viewBox="0 0 1024 1024" version="1.1" xmlns="http://www.w3.org/2000/svg" p-id="5055" xmlns:xlink="http://www.w3.org/1999/xlink" width="200" height="200"><path d="M791.808 171.6736c10.4704 0 20.48 4.2496 27.904 11.776 4.1216 4.1984 7.2704 9.2416 9.216 14.7456a40.6784 40.6784 0 0 1 2.304 17.92v20.2496l2.1248 3.1232C875.136 305.664 896 378.3168 896 452.864c0 108.7488-43.1616 209.8432-121.5744 284.6208l-8.704 8.3456 0.7168 12.2112c0 12.9024-4.224 23.8848-13.1328 32.0256l-7.5264 6.912-0.6912 10.2912a39.3472 39.3472 0 0 1-38.9376 37.2736c-16.768 0-31.6416-10.752-37.12-26.7776l-6.0928-17.1776h-107.776l-5.8368 16.9472c5.6064 16.4864 0 34.7648-13.824 45.1072a38.7328 38.7328 0 0 1-46.5152 0 40.2432 40.2432 0 0 1-13.824-45.1072l-6.1184-17.2032h-107.7248l-5.8624 16.9472a39.5008 39.5008 0 0 1-37.0944 26.7776 40.2176 40.2176 0 0 1-39.424-36.8128l-0.7168-10.24-7.5264-6.9632a40.7552 40.7552 0 0 1-13.3632-30.08v-8.6272l-5.1712-10.2656C171.1872 662.7072 128 561.6128 128 452.864c0-74.496 20.992-147.4816 60.5696-210.2784l1.8688-3.1232 2.0992-6.912v-20.7872c0-10.624 4.1472-20.8128 11.52-28.3136 7.424-7.5264 17.4592-11.7504 27.904-11.776 10.496 0.0256 20.5312 4.2496 27.904 11.776 6.6048 6.656 10.5984 15.488 11.392 24.832l0.128 1.9712 0.0256 1.5104v43.9808c0 12.6464-5.8624 24.3456-15.7184 32.256l-2.1248 1.4336-3.2768 3.584A315.392 315.392 0 0 0 206.6432 453.12c0 107.3152 53.248 205.7216 142.464 263.0912l3.0464 1.8944 6.8352 1.9456h309.5808l3.072-1.92c92.2368-59.2896 145.5104-157.696 145.5104-265.0112 0-55.68-14.592-110.1568-42.24-157.696l-1.4336-2.176-3.2768-3.8144c-11.9552-9.088-17.8432-20.7872-17.8432-33.7152V211.7376c0-10.5984 4.1472-20.7872 11.52-28.3136 7.424-7.5008 17.4592-11.7504 27.904-11.776zM511.0784 509.952c27.904 0 50.4832 22.9376 50.4832 51.2 0 28.288-22.6048 51.2-50.4832 51.2-13.44 0-26.3168-5.376-35.7888-15.0016a51.712 51.712 0 0 1-10.9056-55.808 50.4832 50.4832 0 0 1 46.6944-31.5904z m0-381.952c21.76-0.0256 39.3984 19.8912 39.424 44.4928v243.712c0 11.8016-4.096 23.168-11.52 31.5392-7.424 8.3712-17.4336 13.056-27.904 13.056-10.496 0-20.5312-4.6848-27.9296-13.056a47.5648 47.5648 0 0 1-11.52-31.5648V172.544c0-24.576 17.664-44.5184 39.424-44.5184z" p-id="5056"></path></svg>