<?xml version="1.0" encoding="UTF-8"?>
<svg width="40px" height="40px" viewBox="0 0 40 40" version="1.1" xmlns="http://www.w3.org/2000/svg" xmlns:xlink="http://www.w3.org/1999/xlink">
    <title>icon_cluster_4</title>
    <g id="icon_cluster_4" stroke="none" stroke-width="1" fill="none" fill-rule="evenodd">
        <path d="M22.5,9 C26.2279221,9 32,12.8202983 32,20 C32,27.1797017 26.2279221,31 22.5,31 C18.7720779,31 20,27.1797017 20,20 L19.9960079,19.2814596 C19.9224458,12.5656849 18.8984482,9 22.5,9 Z M22.173018,10.9979453 C22.0474418,11.0016856 22.0179288,11.0248096 21.9901208,11.1237052 L21.9142256,11.442664 C21.7994997,11.9860967 21.7796488,12.6617204 21.8373024,14.3816178 L21.9487881,17.2632719 C21.9837577,18.2699021 22,19.0948035 22,20 L21.9969157,20.6679362 C21.9896738,21.4391834 21.9695208,22.1991077 21.9347918,23.1232447 L21.8373024,25.6183822 C21.7796488,27.3382796 21.7994997,28.0139033 21.9142256,28.557336 L21.9901208,28.8762948 C22.033819,29.0317022 22.0817279,29 22.5,29 C26.0542303,29 30,25.1709544 30,20 C30,14.924804 26.1990168,11.1422767 22.6978325,11.0039236 L22.173018,10.9979453 Z M13.9145353,7.59549399 C14.1379378,8.10057791 13.9095899,8.69113283 13.404506,8.91453534 C12.4577363,9.33329887 12,10.14314 12,11.5384615 C12,12.1768215 12.0955496,12.5439019 12.4149908,13.0470361 L18,10 L18,12 L13.4171262,14.5016349 C13.8303331,15.2156237 14,15.8700223 14,16.8461538 C14,16.9648842 13.9974898,17.0788545 13.9923365,17.1887512 L18,15 L18,17 L13.1145024,19.6655699 C13.0669241,19.7346324 13.017189,19.8048748 12.9652411,19.8765861 L12.798609,20.1018502 C12.1671866,20.9396991 12,21.3094388 12,22.1538462 C12,22.6329166 12.0498377,22.8769833 12.2478651,23.1370403 L18,20 L18,22 L13.4692625,24.4726686 C13.8357168,25.0305562 14,25.6566889 14,26.5769231 C14,27.9595376 13.5760173,29.0222123 12.798609,30.0537733 L12.1054675,30.9182302 C12.003761,31.0390038 12,31.0293295 12,31 L11.9932723,31.1166211 C11.9355072,31.6139598 11.5128358,32 11,32 C10.4477153,32 10,31.5522847 10,31 C10,30.2778794 10.4849562,29.6343798 11.201391,28.8500728 C11.7364827,28.1400473 12,27.4795649 12,26.5769231 C12,26.0120796 11.9366337,25.7345487 11.6998332,25.4377228 L7,28 L7,26 L10.4813073,24.1009052 C10.1483231,23.5793828 10,22.9976875 10,22.1538462 C10,21.8543182 10.0159755,21.5850841 10.050061,21.3351263 L7,23 L7,21 L11.4317028,18.5831821 C11.874763,17.9522515 12,17.576986 12,16.8461538 C12,16.2602736 11.919515,15.9029024 11.659325,15.4591354 L7,18 L7,16 L10.6558859,14.0056688 C10.1895511,13.2425154 10,12.5702077 10,11.5384615 C10,9.39532155 10.875597,7.84618831 12.595494,7.08546466 C13.1005779,6.86206216 13.6911328,7.09041006 13.9145353,7.59549399 Z" id="形状结合" fill="#000000" fill-rule="nonzero"></path>
    </g>
</svg>