<?xml version="1.0" standalone="no"?><!DOCTYPE svg PUBLIC "-//W3C//DTD SVG 1.1//EN" "http://www.w3.org/Graphics/SVG/1.1/DTD/svg11.dtd"><svg t="1739950347826" class="icon" viewBox="0 0 1024 1024" version="1.1" xmlns="http://www.w3.org/2000/svg" p-id="6495" xmlns:xlink="http://www.w3.org/1999/xlink" width="200" height="200"><path d="M515.1488 153.6c207.2064 0.8192 374.1696 167.9104 373.632 373.9136-0.5632 204.7488-169.3952 369.1264-378.6752 368.4864-209.2032-0.512-375.808-166.9632-374.8864-374.528 0.8704-203.8784 170.9312-368.5632 379.904-367.872z m361.5232 63.616c79.872 91.1872 119.8848 197.1456 121.728 318.2848-2.048 128.128-47.4368 240.0256-138.3424 334.3872-13.6448 14.1568-23.7568 19.456-35.6608-0.3584a47.3344 47.3344 0 0 0-10.5472-11.8272c-11.3152-9.1136-8.2432-15.616 1.1264-25.1136 90.7776-91.7504 132.1984-201.7792 123.4432-329.1136-6.912-99.456-46.8992-185.344-116.48-257.792-11.008-11.4432-13.7984-17.536-1.0752-29.952 29.2608-28.6464 28.672-29.5424 55.808 1.4848zM192.5376 190.08c25.344 27.648 26.112 27.0336 1.0496 54.528-149.4272 163.584-144.4096 409.856 11.5712 567.6544 16.128 16.4608 16.384 25.1904 0.512 40.4992-21.76 20.9408-20.864 22.2208-42.24 0.3584C72.4224 760.192 27.904 649.2672 25.6 520.8064c2.2528-126.0544 47.5648-236.5952 136.9344-330.6496 11.8528-12.4928 18.176-12.9792 30.0032-0.0768z m320.0768 17.5104c-177.92-0.1536-322.7904 142.6432-322.5856 318.0032 0.256 174.5152 144.2048 316.1088 321.6384 316.416 177.408 0.2816 321.8176-141.056 322.304-315.4176 0.512-175.9232-143.4368-318.8224-321.3568-318.976zM558.08 351.232c87.04 0 130.56 36.864 130.56 111.104 0 74.752-44.032 112.128-131.584 112.128h-94.72V716.8h-55.808V351.232z m-4.608 47.616h-91.136v128h91.136c27.648 0 47.616-5.12 60.416-15.36 12.288-10.24 18.944-26.624 18.944-49.152 0-22.528-6.656-38.912-19.456-48.128-12.8-10.24-32.768-15.36-59.904-15.36z" p-id="6496"></path></svg>