<?xml version="1.0" standalone="no"?><!DOCTYPE svg PUBLIC "-//W3C//DTD SVG 1.1//EN" "http://www.w3.org/Graphics/SVG/1.1/DTD/svg11.dtd"><svg t="1739425816610" class="icon" viewBox="0 0 1024 1024" version="1.1" xmlns="http://www.w3.org/2000/svg" p-id="2308" xmlns:xlink="http://www.w3.org/1999/xlink" width="200" height="200"><path d="M582.4 179.2C725.5552 179.2 870.4 282.368 870.4 409.6s-144.8448 230.4-288 230.4c-140.672 0-171.7504-99.6352-172.7744-223.8464L409.6 409.6c0-127.232 29.6448-230.4 172.8-230.4z m0 51.2c-89.728 0-120.3456 47.4368-121.5744 171.3664L460.8 409.6c0 129.792 30.0032 179.2 121.6 179.2 122.8544 0 236.8-87.808 236.8-179.2s-113.9456-179.2-236.8-179.2zM409.6 537.6v51.2H153.6v-51.2h256z m-25.6-102.4v51.2H153.6v-51.2h230.4z m0-102.4v51.2H153.6v-51.2h230.4z m25.6-102.4v51.2H153.6V230.4h256zM237.696 798.6944l9.216-28.672c6.656-21.248 12.8-41.472 18.688-63.488h1.024c6.144 21.76 12.032 42.24 18.944 63.488l8.96 28.672h-56.832z m80.64 76.288h25.088l-63.744-187.648h-26.368l-63.744 187.648h24.064l18.176-57.344h68.608l17.92 57.344z m100.864 3.328c38.4 0 67.584-20.48 67.584-80.896v-110.08h-22.784v110.848c0 45.312-19.712 59.392-44.8 59.392-24.32 0-43.52-14.08-43.52-59.392v-110.848h-23.808v110.08c0 60.416 29.184 80.896 67.328 80.896z m144.384-3.328h23.808v-167.68h56.832v-19.968h-137.472v19.968h56.832v167.68z m163.84 3.328c47.104 0 80.128-37.632 80.128-97.792 0-60.16-33.024-96.768-80.128-96.768-47.104 0-80.128 36.608-80.128 96.768 0 60.16 33.024 97.792 80.128 97.792z m0-20.736c-33.792 0-55.808-30.208-55.808-77.056 0-47.104 22.016-76.032 55.808-76.032 33.536 0 55.808 28.928 55.808 76.032 0 46.848-22.272 77.056-55.808 77.056z" p-id="2309"></path></svg>