<?xml version="1.0" encoding="UTF-8"?>
<svg width="40px" height="40px" viewBox="0 0 40 40" version="1.1" xmlns="http://www.w3.org/2000/svg" xmlns:xlink="http://www.w3.org/1999/xlink">
    <title>icon_cluster_3</title>
    <g id="icon_cluster_3" stroke="none" stroke-width="1" fill="none" fill-rule="evenodd">
        <rect id="矩形" stroke="#000000" x="4.5" y="21.5" width="5" height="1" rx="0.5"></rect>
        <rect id="矩形" stroke="#000000" transform="translate(8.000000, 15.000000) rotate(-330.000000) translate(-8.000000, -15.000000) " x="5.5" y="14.5" width="5" height="1" rx="0.5"></rect>
        <rect id="矩形" stroke="#000000" transform="translate(8.000000, 29.000000) scale(1, -1) rotate(-330.000000) translate(-8.000000, -29.000000) " x="5.5" y="28.5" width="5" height="1" rx="0.5"></rect>
        <path d="M13.5049518,16.0602582 C14.9027505,16 16.2010592,16.6175342 17.1590002,17.726729 C17.9504217,18.6431119 18.5058399,19.9098189 18.5058399,21.5 C18.5058399,23.0901811 17.9504217,24.3568881 17.1590002,25.273271 C16.2010592,26.3824658 14.9027505,27 13.8922035,27 C13.7340516,27 13.6020529,26.9966544 13.5049518,26.9397418 C13.4626787,26.9149648 13.4490447,26.8666323 13.4312068,26.8208153 C13.206636,26.2440024 13.2939725,25.3145944 13.3465895,24.074782 C13.3786934,23.3183188 13.4149308,22.4590401 13.4149308,21.5 C13.4149308,20.5409599 13.3786934,19.6816812 13.3465895,18.925218 C13.2939725,17.6854056 13.206636,16.7559976 13.4312068,16.1791847 C13.4490447,16.1333677 13.4626787,16.0850352 13.5049518,16.0602582 Z" id="椭圆形" stroke="#000000" stroke-width="2"></path>
        <rect id="矩形" stroke="#000000" transform="translate(33.000000, 22.000000) scale(-1, 1) translate(-33.000000, -22.000000) " x="30.5" y="21.5" width="5" height="1" rx="0.5"></rect>
        <rect id="矩形" stroke="#000000" transform="translate(33.000000, 15.000000) scale(-1, 1) rotate(-330.000000) translate(-33.000000, -15.000000) " x="30.5" y="14.5" width="5" height="1" rx="0.5"></rect>
        <rect id="矩形" stroke="#000000" transform="translate(33.000000, 29.000000) scale(-1, -1) rotate(-330.000000) translate(-33.000000, -29.000000) " x="30.5" y="28.5" width="5" height="1" rx="0.5"></rect>
        <path d="M22.5049518,16.0602582 C23.9027505,16 25.2010592,16.6175342 26.1590002,17.726729 C26.9504217,18.6431119 27.5058399,19.9098189 27.5058399,21.5 C27.5058399,23.0901811 26.9504217,24.3568881 26.1590002,25.273271 C25.2010592,26.3824658 23.9027505,27 22.8922035,27 C22.7340516,27 22.6020529,26.9966544 22.5049518,26.9397418 C22.4626787,26.9149648 22.4490447,26.8666323 22.4312068,26.8208153 C22.206636,26.2440024 22.2939725,25.3145944 22.3465895,24.074782 C22.3786934,23.3183188 22.4149308,22.4590401 22.4149308,21.5 C22.4149308,20.5409599 22.3786934,19.6816812 22.3465895,18.925218 C22.2939725,17.6854056 22.206636,16.7559976 22.4312068,16.1791847 C22.4490447,16.1333677 22.4626787,16.0850352 22.5049518,16.0602582 Z" id="椭圆形" stroke="#000000" stroke-width="2" transform="translate(24.903164, 21.500000) scale(-1, 1) translate(-24.903164, -21.500000) "></path>
    </g>
</svg>