<?xml version="1.0" encoding="UTF-8"?>
<svg width="40px" height="40px" viewBox="0 0 40 40" version="1.1" xmlns="http://www.w3.org/2000/svg" xmlns:xlink="http://www.w3.org/1999/xlink">
    <title>icon_cluster_2</title>
    <g id="icon_cluster_2" stroke="none" stroke-width="1" fill="none" fill-rule="evenodd">
        <path d="M22.75,7 C28.3418831,7 34,11.0294373 34,16 C34,20.9705627 28.3418831,25 22.75,25 C17.2545287,25 16.0412531,21.108311 16.0010496,16.256243 L16,16 C16,11.0294373 17.1581169,7 22.75,7 Z M22.75,9 C19.2447761,9 18.0488288,10.8525847 18.0014746,15.693539 L18,16 C18,21.0694202 19.1717506,23 22.75,23 C27.5489678,23 32,19.5700234 32,16 C32,12.4299766 27.5489678,9 22.75,9 Z M16,21 L16,23 L6,23 L6,21 L16,21 Z M15,17 L15,19 L6,19 L6,17 L15,17 Z M15,13 L15,15 L6,15 L6,13 L15,13 Z M16,9 L16,11 L6,11 L6,9 L16,9 Z M9.285,31.1985714 L9.645,30.0785714 C9.905,29.2485714 10.145,28.4585714 10.375,27.5985714 L10.415,27.5985714 C10.655,28.4485714 10.885,29.2485714 11.155,30.0785714 L11.505,31.1985714 L9.285,31.1985714 Z M12.435,34.1785714 L13.415,34.1785714 L10.925,26.8485714 L9.895,26.8485714 L7.405,34.1785714 L8.345,34.1785714 L9.055,31.9385714 L11.735,31.9385714 L12.435,34.1785714 Z M16.375,34.3085714 C17.875,34.3085714 19.015,33.5085714 19.015,31.1485714 L19.015,26.8485714 L18.125,26.8485714 L18.125,31.1785714 C18.125,32.9485714 17.355,33.4985714 16.375,33.4985714 C15.425,33.4985714 14.675,32.9485714 14.675,31.1785714 L14.675,26.8485714 L13.745,26.8485714 L13.745,31.1485714 C13.745,33.5085714 14.885,34.3085714 16.375,34.3085714 Z M22.015,34.1785714 L22.945,34.1785714 L22.945,27.6285714 L25.165,27.6285714 L25.165,26.8485714 L19.795,26.8485714 L19.795,27.6285714 L22.015,27.6285714 L22.015,34.1785714 Z M28.415,34.3085714 C30.255,34.3085714 31.545,32.8385714 31.545,30.4885714 C31.545,28.1385714 30.255,26.7085714 28.415,26.7085714 C26.575,26.7085714 25.285,28.1385714 25.285,30.4885714 C25.285,32.8385714 26.575,34.3085714 28.415,34.3085714 Z M28.415,33.4985714 C27.095,33.4985714 26.235,32.3185714 26.235,30.4885714 C26.235,28.6485714 27.095,27.5185714 28.415,27.5185714 C29.725,27.5185714 30.595,28.6485714 30.595,30.4885714 C30.595,32.3185714 29.725,33.4985714 28.415,33.4985714 Z" id="形状结合" fill="#000000" fill-rule="nonzero"></path>
    </g>
</svg>