<?xml version="1.0" standalone="no"?><!DOCTYPE svg PUBLIC "-//W3C//DTD SVG 1.1//EN" "http://www.w3.org/Graphics/SVG/1.1/DTD/svg11.dtd"><svg t="1739950334206" class="icon" viewBox="0 0 1024 1024" version="1.1" xmlns="http://www.w3.org/2000/svg" p-id="6015" xmlns:xlink="http://www.w3.org/1999/xlink" width="200" height="200"><path d="M510.08 896c-209.1776-0.512-375.7824-166.9632-374.8608-374.528 0.8704-203.8784 170.9312-368.5632 379.904-367.872 207.232 0.8192 374.1952 167.9104 373.6576 373.9136-0.5632 204.7488-169.3952 369.1264-378.6752 368.4864h-0.0256z m1.5872-54.016c177.408 0.3072 321.8176-141.0048 322.304-315.392 0.512-175.9232-143.4368-318.8224-321.3568-318.976-177.92-0.1792-322.7904 142.592-322.5856 317.952 0.256 174.5408 144.2048 316.16 321.6384 316.416z m-60.928-323.4304c0-38.8352 0.7424-77.6448-0.384-116.48-0.384-15.36 4.992-19.8144 19.6608-18.8928 17.5104 1.152 35.2-0.2304 52.7104 0.768 28.16 1.5872 49.792 14.5152 61.7472 40.4224 11.776 25.7024 9.1136 50.816-8.7296 72.9088-7.5264 9.2928-8.9344 13.7984 0.9984 22.9376 24.2432 22.3488 29.4912 51.3024 19.6096 81.7664-9.7024 29.8496-33.0752 45.2608-63.488 48.4864-21.2224 2.304-42.7776 1.024-64.0768 2.432-13.9776 0.9728-18.6624-3.7632-18.3808-17.92 0.9216-38.8096 0.3328-77.568 0.3328-116.4288z m41.7792 52.864v28.3648c0 6.016 0.0512 12.1344 8.5248 12.3904 13.3888 0.4608 26.88 1.536 39.2704-4.9152 16.7936-8.7552 24.064-30.2592 16.896-49.4592-6.8352-18.4832-30.0032-30.2336-53.7856-24.9856-21.6832 4.8128-6.4 23.04-10.8288 34.2528-0.512 1.28-0.0768 2.9184-0.0768 4.352z m17.664-67.4816c32-0.2304 50.2528-15.488 49.7664-40.1152-0.3584-24.4736-19.2512-39.424-48.64-40.2176-13.7728-0.384-20.992 2.6112-19.712 17.664 1.2288 14.464 1.2288 29.2352 0 43.7504-1.28 15.3856 4.6336 21.5552 18.5856 18.944z m-105.728 147.0208c-15.616 3.2-24.7808-1.9968-25.4208-19.2-0.5376-12.9792-7.296-18.6112-20.8384-16.9216a110.08 110.08 0 0 1-25.0112 0.0768c-18.6112-2.0224-31.3344 0.4096-33.408 24.064-1.8944 21.6832-21.504 11.9552-32.8192 11.4432-14.848-0.5888-5.8624-13.2096-4.5568-19.3792 16.128-77.2352 33.7408-154.112 49.4336-231.3984 4.3008-21.0944 18.2528-16.0256 30.8224-16.0768 12.6464 0 26.1376-4.9408 30.2592 16.5376a8107.0848 8107.0848 0 0 0 48.7168 231.6288c3.8656 17.3056-0.5632 22.528-17.1776 19.2v0.0256z m-61.9776-186.88c-1.6896 0.128-3.2512 0.256-4.864 0.3328-6.8352 28.5952-13.8496 57.1392-20.5312 85.7344-8.2688 36.0704-5.8368 37.7856 38.144 34.0224 11.392-1.024 14.4384-4.4288 12.2368-13.4144-8.448-35.584-16.6656-71.1168-24.9856-106.7008z m360.8064 188.9536c-33.92 0.3072-62.0032-21.0432-71.0912-54.7328-1.7664-6.272-8.32-16.5376 1.7152-18.8928 9.8304-2.2784 23.0912-8.064 31.104 5.9136 1.0752 1.8688 1.536 4.224 2.432 6.2464 7.7824 18.8928 21.8112 27.4688 41.5232 24.9344 18.9952-2.432 29.8496-14.6944 33.3312-33.3568 3.7888-20.48-2.0736-37.6832-21.1712-46.7968-15.6928-7.5008-32.9216-11.776-48.7936-19.1488-28.4928-13.312-40.9856-41.856-35.072-76.6976 5.6064-31.232 30.9248-54.6816 61.7472-57.1648 29.0304-2.6368 57.6256 15.0528 67.1744 43.0592 2.3552 6.9632 11.3664 18.944-0.7936 22.2464-9.6512 2.6112-25.216 9.2672-31.6928-8.2176-6.6048-18.0992-18.944-26.0352-37.2992-22.4768-14.9248 2.8416-21.632 14.08-23.936 28.416-2.9696 18.8672 4.9152 31.9744 21.7856 39.0912 11.3664 4.7616 23.296 8.2432 34.8928 12.544 36.7872 13.824 55.9104 50.176 48.4352 91.776-6.912 36.5568-38.016 63.0272-74.2912 63.2576zM998.4 535.5264c-2.048 128.1024-47.4368 240-138.3424 334.3616-13.6448 14.1568-23.7568 19.456-35.6608-0.3584a47.3344 47.3344 0 0 0-10.5472-11.8272c-11.3152-9.1136-8.2432-15.616 1.1264-25.1136 90.7776-91.7504 132.1984-201.7792 123.4432-329.1136-6.912-99.456-46.8992-185.344-116.48-257.792-11.008-11.4432-13.7984-17.536-1.0752-29.952 29.2608-28.6464 28.672-29.5424 55.808 1.4848 79.872 91.1872 119.8848 197.1456 121.728 318.2848z m-972.8-14.72c2.2528-126.0544 47.5648-236.5952 136.9344-330.6496 11.8528-12.4928 18.176-12.9792 30.0032-0.0768 25.344 27.648 26.112 27.0336 1.0496 54.528-149.4272 163.584-144.4096 409.856 11.5712 567.6544 16.128 16.4608 16.384 25.1904 0.512 40.4992-21.76 20.9408-20.864 22.2208-42.24 0.3584C72.4224 760.192 27.904 649.2672 25.6 520.8064z" p-id="6016"></path></svg>