<?xml version="1.0" standalone="no"?><!DOCTYPE svg PUBLIC "-//W3C//DTD SVG 1.1//EN" "http://www.w3.org/Graphics/SVG/1.1/DTD/svg11.dtd"><svg t="1742450845218" class="icon" viewBox="0 0 1024 1024" version="1.1" xmlns="http://www.w3.org/2000/svg" p-id="1726" xmlns:xlink="http://www.w3.org/1999/xlink" width="200" height="200"><path d="M511.8976 51.4304c21.632-0.8704 43.264 0.8704 63.1296 3.4816 5.1968 0.896 9.5232 1.7664 14.72 2.6368l18.1504 5.248c19.8912 6.9888 37.1712 17.4848 49.28 32.3328 6.912 9.6256 12.9792 19.2256 17.3056 28.8512 13.2608 30.3104 18.432 97.6128 15.5648 201.9328 0 27.8272 0.1792 68.7872 0.4096 116.3776 21.0944 13.5936 51.072 43.5712 69.4016 62.8736C848.2816 598.144 870.4 621.3888 870.4 667.8784v23.2448l-179.584-167.8848c0.1792 42.9312 0.3328 87.9616 0.384 131.584v54.8864a8214.016 8214.016 0 0 1-1.152 138.9568c0 35.84-1.7408 59.4432-3.456 65.5616-3.456 11.3664-13.824 22.7328-32.8704 32.3584-23.3472 11.3408-58.8032 20.992-108.9536 24.4736-10.368 0.8704-21.632 1.7408-32.8704 1.7408h-9.4976c-7.7824 0-16.4352 0-23.3472-0.8704-49.3056-3.5072-85.632-12.2368-108.9792-24.4736-18.1504-9.6256-29.3888-20.992-32.8448-32.3584-1.7408-5.248-2.6112-29.696-3.456-65.536-0.6144-30.72-0.896-69.7856-0.9472-112.9728v-39.8592c0-27.1872 0.1024-55.3728 0.2304-83.6864l0.128-28.3136 0.3584-61.824L153.6 691.0976v-23.2192c0-46.4896 22.1184-69.7344 110.5408-162.7136 18.4832-19.456 48.8448-49.792 69.9392-63.2064 0.3072-47.0528 0.5376-87.552 0.5376-115.1744-3.456-104.8832 1.4592-172.4928 14.72-202.8032a169.728 169.728 0 0 1 17.28-28.8512c11.264-14.848 28.544-25.344 49.3056-32.3328 5.1712-1.7408 12.1088-3.5072 18.176-5.248 4.3008-0.8704 9.472-1.7408 14.6688-2.6368a360.448 360.448 0 0 1 53.632-3.4816z m97.408 714.7008l-2.2784 0.3584a416.512 416.512 0 0 1-96 13.1072 416.512 416.512 0 0 1-95.9744-13.1072c-6.912-1.7408-12.9792 2.6368-14.6944 9.6256l-19.8912 92.672c-0.8704 5.2224 0.8704 10.496 6.0416 13.1072l1.024 0.512 2.3552 1.1776c13.0304 6.3488 61.9008 28.032 126.336 28.032 64.128 0 105.728-21.4528 117.0944-27.904l2.7904-1.6384 0.3328-0.1792c4.3264-2.6368 6.0416-7.8848 5.1712-13.1328l-19.8912-92.672c-1.7152-6.9632-7.7824-11.3408-14.6944-9.6zM511.0528 209.664c-17.3056 0.8704-35.456 1.7408-52.7616 4.352-37.1968 5.248-70.0416 14.0032-81.28 27.9808-14.72 17.4848 11.2384 141.6192 19.8912 142.4896 7.7824 0.8704 41.4976-12.2368 107.2128-13.1072h12.9792c65.7152 0.8704 99.456 13.9776 108.0832 13.1072 8.6528-0.8704 34.6112-125.0048 19.8912-142.4896-12.1088-13.9776-44.0832-22.7328-81.28-27.9808-17.28-2.6112-35.456-3.4816-52.736-4.352z" p-id="1727"></path></svg>