<?xml version="1.0" standalone="no"?><!DOCTYPE svg PUBLIC "-//W3C//DTD SVG 1.1//EN" "http://www.w3.org/Graphics/SVG/1.1/DTD/svg11.dtd"><svg t="1739950329332" class="icon" viewBox="0 0 1027 1024" version="1.1" xmlns="http://www.w3.org/2000/svg" p-id="5855" xmlns:xlink="http://www.w3.org/1999/xlink" width="200.5859375" height="200"><path d="M113.2032 68.5056L390.2976 345.6h22.4768L412.8 281.6a179.2 179.2 0 0 1 179.2-179.2h106.0608A73.1392 73.1392 0 0 1 771.2 175.5392V256h153.6v76.8h-153.6v102.4h153.6v76.8h-153.6v54.8608A73.1392 73.1392 0 0 1 698.0608 640h-13.3376l261.1712 261.1968-54.2976 54.2976L575.2576 639.232a179.2512 179.2512 0 0 1-161.6896-161.6896L358.4768 422.4H212.9664l-1.2288 0.3328c-45.568 12.9024-66.1248 38.6048-67.6352 83.7632L144 512c0 33.2544 22.8608 60.3392 88.2176 109.6192l25.3696 18.944 15.3088 11.6736c33.7408 26.1632 53.8112 45.3888 69.4528 68.864C422.5792 841.4208 344.96 985.6 156.8 985.6H0v-76.8H156.8c126.9248 0 167.7824-75.8784 121.6512-145.1008-10.8032-16.2048-28.16-32.2304-60.3136-56.6784l-24.8832-18.6112C102.7328 621.056 67.2 580.6336 67.2 512c0-86.0672 46.3104-143.9488 131.4816-165.248l4.608-1.152h78.3872L58.9056 122.8032l54.2976-54.2976z" p-id="5856"></path></svg>