<?xml version="1.0" standalone="no"?><!DOCTYPE svg PUBLIC "-//W3C//DTD SVG 1.1//EN" "http://www.w3.org/Graphics/SVG/1.1/DTD/svg11.dtd"><svg t="1744271507582" class="icon" viewBox="0 0 1024 1024" version="1.1" xmlns="http://www.w3.org/2000/svg" p-id="1717" xmlns:xlink="http://www.w3.org/1999/xlink" width="200" height="200"><path d="M564.1728 164.224a89.6 89.6 0 0 1 81.2032 51.6352 89.6 89.6 0 0 1 134.3232 34.3808 89.6 89.6 0 0 1 141.824 72.7552v62.2592h-1.024c0.4864 1.92 0.7168 3.9424 0.7168 6.0416l-0.1792 259.9424c0.0512 7.2192 0.1024 13.0304 0.1792 17.408l-0.1536 3.1488c-7.168 66.0992-55.9616 150.0928-122.7008 172.6208-25.9328 8.7552-58.7264 13.2352-99.2 14.7968l-10.2656 0.3584c-27.4432 0.7168-98.304-0.7168-114.0736-0.8192h-2.7392c-125.0304-2.2016-216.4736-53.6064-270.1824-152.0896l-109.4656-181.248a11116.6208 11116.6208 0 0 1-57.8304-97.2544l-12.16-20.9408a580.8384 580.8384 0 0 1-17.536-31.8208 25.6 25.6 0 0 1 15.2576-35.2768c79.6416-25.856 150.5792-3.2768 208.128 65.6896l12.3904 15.2576v-133.0176a89.6 89.6 0 0 1 142.4384-72.3968 89.5744 89.5744 0 0 1 81.0496-51.4304z m0 51.2a38.4 38.4 0 0 0-38.4 38.4v131.4048h-57.088v-97.1776a38.4 38.4 0 0 0-34.688-38.2208l-3.6864-0.1792a38.4 38.4 0 0 0-38.4 38.4l0.0256 200.192a25.6 25.6 0 0 1-44.7744 22.1184l-58.368-72.0128c-34.816-41.6768-72.704-60.3136-116.0704-57.0368l-5.8624 0.5632 27.3152 46.5408c15.2576 25.7536 34.432 57.856 57.5232 96.256l94.5664 156.4416c45.1328 82.7648 119.5008 124.544 225.6128 126.464l23.6544 0.256c27.904 0.384 72.5504 1.0752 92.0064 0.5376 40.5248-1.0752 72.32-4.992 94.464-12.4672 42.752-14.4128 80.0512-76.4672 87.4496-124.1856l0.5376-4.1728-0.3328-105.0112 0.3584-171.392c0-2.048 0.256-4.0192 0.6912-5.888h-0.3584v-62.2592a38.4 38.4 0 0 0-76.8 0v62.2336h-56.704v-97.1776a38.4 38.4 0 0 0-34.7136-38.2208l-3.6864-0.1792a38.4 38.4 0 0 0-38.4 38.4v97.1776h-57.472V253.824a38.4 38.4 0 0 0-34.688-38.2208l-3.712-0.1792z" p-id="1718"></path></svg>