<?xml version="1.0" standalone="no"?><!DOCTYPE svg PUBLIC "-//W3C//DTD SVG 1.1//EN" "http://www.w3.org/Graphics/SVG/1.1/DTD/svg11.dtd"><svg t="1744271525227" class="icon" viewBox="0 0 1024 1024" version="1.1" xmlns="http://www.w3.org/2000/svg" p-id="2185" xmlns:xlink="http://www.w3.org/1999/xlink" width="200" height="200"><path d="M592.128 141.056l10.496 24.704a84.3264 84.3264 0 0 1 61.5168-42.5472l5.7344-0.64a84.4032 84.4032 0 0 1 91.4432 76.7232l18.432 210.8672c0.6144 6.912 0.3584 13.7472-0.6656 20.3264 2.7648 35.9936 8.2944 94.2592 14.6944 157.7472l11.1104 107.008c10.9568 102.7328 21.5808 194.8672 24.2432 206.3872a25.344 25.344 0 0 1-23.6288 31.0016l-32.1024 0.8704c-13.1584 0.256-28.416 0.4352-44.7232 0.5888l-59.8528 0.3072-46.6688-0.0512c-45.056-0.2048-82.176-0.8192-89.9328-1.9456a25.344 25.344 0 0 1-21.7344-25.088c0-5.9648 0.6144-11.776 1.792-19.0208l3.7376-20.48 0.512-3.5328-3.6352 0.4608-3.4304 0.5888c-115.0464 21.504-269.6704-59.392-306.3296-150.144-21.1456-52.3264-1.7408-102.4512 35.072-121.2672-24.6016-11.4944-43.9808-32.9728-43.9808-63.0784 0-61.9008 21.0176-94.7456 87.3216-134.6304 25.0112-15.0272 49.9968-26.0608 75.392-32.512l-101.12-129.408a84.4032 84.4032 0 0 1 10.7264-115.328l4.4288-3.6352a84.4032 84.4032 0 0 1 118.4768 14.5408l40.1152 51.3536a84.48 84.48 0 0 1 46.6432-82.5088l5.248-2.3808A84.4032 84.4032 0 0 1 592.128 141.056z m-90.88 1.8944l-0.7424 0.3072a33.7664 33.7664 0 0 0-17.8688 44.288l57.216 134.8096 1.2288 1.5616 17.6896 41.7536-0.3328-0.2048-192.4608-183.3984-16.4352-21.0176a33.7664 33.7664 0 0 0-47.36-5.8368l-0.64 0.512a33.7664 33.7664 0 0 0-5.8368 47.36l120.5504 154.2912c28.0832 1.0752 56.96 8.0128 87.1168 21.504 3.2512 2.1504 6.1184 3.584 8.6272 4.352 9.2672 2.944 37.3248 10.6496 67.456 28.4928 11.3152 6.7072 34.944 23.424 70.8608 50.176l-0.2048-1.3056c5.2992 7.168 10.3168 14.6176 15.0016 22.3488-22.912-18.7904-56.9856-37.248-96.896-50.9952-59.6224-20.5056-140.288-30.7712-182.0672-22.4256l5.9648-0.768c-28.4672 2.9952-56.0896 13.7984-84.48 30.848-51.8656 31.232-62.7712 48.256-62.7712 91.2384 0 16.9984 39.9872 27.2128 46.9248 20.8896l17.7408-20.0448c1.4848-1.6384 2.816-3.072 3.84-4.096 22.656-23.3472 47.7184-36.8384 79.9744-36.8384 62.208 0 117.248 46.72 117.248 105.984 0 68.5056-29.9008 111.488-103.168 118.3744-53.248 5.0176-92.672-15.5392-112.4864-59.8016l1.6896 2.8672-1.92-3.3792c-10.112-17.2032-18.7392-20.992-30.6688-16.9472-15.2576 5.1456-25.9584 28.6208-13.952 58.368 26.88 66.4576 152.448 133.376 243.7632 120.3712l6.2976-1.024c30.8736-5.7856 53.632 0.3328 63.5136 22.912 5.12 11.7248 5.376 20.0448 2.2784 38.144l-1.2288 6.6048 33.6896 0.384c11.9552 0.0768 25.0624 0.128 38.7328 0.1536l73.7536-0.2048a6198.016 6198.016 0 0 0 52.7104-0.5632l11.6992-0.2304-3.6352-29.44a13135.488 13135.488 0 0 1-18.688-167.424l-9.9072-96-16.1536-197.3248a25.1648 25.1648 0 0 1 0.3328-1.536l-6.272-71.7568-2.7648-33.792-0.2048-0.0768-7.1424-81.6896a33.7664 33.7664 0 0 0-36.5824-30.72l-0.768 0.1024a33.7664 33.7664 0 0 0-30.72 36.5568l5.5808 63.872 0.0512 0.128 10.5216 125.3376-79.488-159.1808-0.3584 0.128-33.5872-79.104a33.7664 33.7664 0 0 0-44.2624-17.92z m-107.904 398.4384c-16.5376 0-29.696 7.0656-43.648 21.4528-3.584 3.712-19.328 22.2208-23.808 26.3168-4.1984 3.84-9.216 6.8864-14.7712 9.1904 8.704 6.1952 16.6144 14.6176 23.6288 25.088a25.1136 25.1136 0 0 1 5.0688 7.9872l0.4352 0.9984 1.2032 2.176c0.768 1.3824 1.3568 2.816 1.8432 4.3008 10.8288 20.5568 29.0816 28.672 59.392 25.8048 43.9808-4.1472 57.2672-23.2448 57.2672-67.968 0-29.2864-30.72-55.3472-66.6112-55.3472z" p-id="2186"></path></svg>