<?xml version="1.0" standalone="no"?><!DOCTYPE svg PUBLIC "-//W3C//DTD SVG 1.1//EN" "http://www.w3.org/Graphics/SVG/1.1/DTD/svg11.dtd"><svg t="1744271531162" class="icon" viewBox="0 0 1024 1024" version="1.1" xmlns="http://www.w3.org/2000/svg" p-id="2341" xmlns:xlink="http://www.w3.org/1999/xlink" width="200" height="200"><path d="M859.776 564.1728a89.6 89.6 0 0 1-51.6352 81.2032 89.6 89.6 0 0 1-34.3808 134.3232 89.6 89.6 0 0 1-72.7552 141.824H638.72v-1.024a25.6768 25.6768 0 0 1-6.0416 0.7168l-259.9424-0.1792a1969.408 1969.408 0 0 0-17.408 0.1792l-3.1488-0.1536c-66.0992-7.168-150.0928-55.9616-172.6208-122.7008-8.7552-25.9328-13.2352-58.7264-14.7968-99.2l-0.3584-10.2656c-0.7168-27.4432 0.7168-98.304 0.8192-114.0736v-2.7392c2.2016-125.0304 53.6064-216.4736 152.0896-270.1824l181.248-109.4656c40.4992-24.32 72.8832-43.5456 97.2544-57.8304l20.9408-12.16a580.8384 580.8384 0 0 1 31.8208-17.536 25.6 25.6 0 0 1 35.2768 15.2576c25.856 79.6416 3.2768 150.5792-65.6896 208.128l-15.2576 12.3904h133.0176a89.6 89.6 0 0 1 72.3968 142.4384 89.5744 89.5744 0 0 1 51.4304 81.0496z m-51.2 0a38.4 38.4 0 0 0-38.4-38.4h-131.4048v-57.088h97.1776a38.4 38.4 0 0 0 38.2208-34.688l0.1792-3.6864a38.4 38.4 0 0 0-38.4-38.4l-200.192 0.0256a25.6 25.6 0 0 1-22.1184-44.7744l72.0128-58.368c41.6768-34.816 60.3136-72.704 57.0368-116.0704l-0.5632-5.8624-46.5408 27.3152c-25.7536 15.2576-57.856 34.432-96.256 57.5232l-156.4416 94.5664c-82.7648 45.1328-124.544 119.5008-126.464 225.6128l-0.256 23.6544c-0.384 27.904-1.0752 72.5504-0.5376 92.0064 1.0752 40.5248 4.992 72.32 12.4672 94.464 14.4128 42.752 76.4672 80.0512 124.1856 87.4496l4.1728 0.5376 105.0112-0.3328 171.392 0.3584c2.048 0 4.0192 0.256 5.888 0.6912v-0.3584h62.2592a38.4 38.4 0 0 0 0-76.8h-62.2336v-56.704h97.1776a38.4 38.4 0 0 0 38.2208-34.7136l0.1792-3.6864a38.4 38.4 0 0 0-38.4-38.4h-97.1776v-57.472h131.4048a38.4 38.4 0 0 0 38.2208-34.688l0.1792-3.712z" p-id="2342"></path></svg>