<?xml version="1.0" standalone="no"?><!DOCTYPE svg PUBLIC "-//W3C//DTD SVG 1.1//EN" "http://www.w3.org/Graphics/SVG/1.1/DTD/svg11.dtd"><svg t="1744271469318" class="icon" viewBox="0 0 1024 1024" version="1.1" xmlns="http://www.w3.org/2000/svg" p-id="1405" xmlns:xlink="http://www.w3.org/1999/xlink" width="200" height="200"><path d="M498.432 149.0944c39.68 0 73.8816 23.552 89.344 57.472a98.176 98.176 0 0 1 147.1488 38.784 98.1504 98.1504 0 0 1 154.9824 80.0256v89.4208h-2.0736v249.1904c0 55.0912-26.624 108.6464-73.984 163.9168-29.8752 34.816-80.512 55.3984-151.168 63.4368l-2.8672 0.1536h-222.8992a235.52 235.52 0 0 1-26.9312-1.28 189.44 189.44 0 0 1-43.136-9.4208 133.888 133.888 0 0 1-37.4784-19.968l-5.0688-4.0192c-25.0368-20.736-71.0656-68.0704-139.52-143.1808l-2.2272-2.816c-23.3984-34.3296-35.6096-64.1024-35.6096-90.4448 0-26.496 12.288-55.8848 37.1968-90.88l69.4528-82.2784v-161.3056a98.1504 98.1504 0 0 1 155.648-79.5904 98.048 98.048 0 0 1 89.1904-57.216z m0 51.2a46.9504 46.9504 0 0 0-46.9504 46.9504v167.552h-52.7616v-128.896a46.9504 46.9504 0 1 0-93.9008 0l-0.0256 169.3952 5.2736 4.4544-5.2736 6.1696v84.2496h-51.2v-23.7056l-29.0048 34.304c-17.9968 25.4464-26.4448 45.6448-26.4448 59.5968 0 13.056 7.3984 32.0512 22.9632 55.9872l2.816 4.1984 38.4 41.728c44.8768 48.1792 76.3904 79.872 93.8496 94.464l4.4032 3.5328c6.528 5.0176 14.336 9.088 23.296 12.2112 17.28 6.0928 33.6384 7.808 53.0432 7.808h221.2352l7.4496-0.896c51.328-6.8608 86.528-21.0688 106.24-41.3952l3.1488-3.4304c40.1664-46.848 61.6448-90.112 61.6448-130.5856V387.3536h2.048l0.0256-61.9776a46.9504 46.9504 0 1 0-93.9008 0v89.4208h-52.352v-128.896a46.9504 46.9504 0 1 0-93.9008 0v128.896h-53.1712V247.2448a46.9504 46.9504 0 0 0-46.9504-46.9504z" p-id="1406"></path></svg>