<?xml version="1.0" standalone="no"?><!DOCTYPE svg PUBLIC "-//W3C//DTD SVG 1.1//EN" "http://www.w3.org/Graphics/SVG/1.1/DTD/svg11.dtd"><svg t="1744684350881" class="icon" viewBox="0 0 1024 1024" version="1.1" xmlns="http://www.w3.org/2000/svg" p-id="1760" xmlns:xlink="http://www.w3.org/1999/xlink" width="200" height="200"><path d="M490.8288 206.4128c39.68 0 73.8816 23.552 89.344 57.4464a98.176 98.176 0 0 1 147.1488 38.784l1.9456-1.3568a98.1504 98.1504 0 0 1 153.0368 81.408v160.5888c0 9.4464-1.3312 18.56-3.8144 27.2128-2.3808 54.2976-17.8432 116.5824-46.1568 186.9824-32.896 81.792-84.224 127.5392-154.8544 133.2992h-353.792a23.04 23.04 0 0 1-14.7456-5.2992C269.312 852.48 231.4752 811.52 195.4304 762.5216c-52.6336-71.5264-46.7456-196.5824-2.048-286.0032 13.312-26.6752 30.976-47.872 52.6336-63.4112v-69.888a98.1504 98.1504 0 0 1 155.6224-79.616 98.048 98.048 0 0 1 89.1904-57.1904z m0.1024 223.5648h-165.4272l-5.12 0.896c-39.2448 7.5008-67.2512 29.1328-85.7856 66.2528-37.7344 75.4688-42.7776 182.7584-2.048 238.08 30.8224 41.9328 62.7968 77.3632 95.8976 106.3168l3.7632 3.1744L675.584 844.8c47.616-3.9424 84.3008-35.1488 110.976-97.2032l3.0208-7.296c15.5392-38.656 26.88-74.368 33.9968-107.0848a97.4336 97.4336 0 0 1-34.3808 8.1152l-5.0432 0.128a98.176 98.176 0 0 1-90.9824-61.2352 97.4336 97.4336 0 0 1-55.2704 17.0752c-23.4752 0-45.056-8.2688-61.952-22.016a143.872 143.872 0 0 1-9.8048 3.072l-157.7984 28.2368 65.8688 83.712a23.04 23.04 0 0 1-1.6896 30.4384l-2.176 1.92a23.04 23.04 0 0 1-32.3328-3.84l-89.6-113.8688a23.04 23.04 0 0 1 14.0544-36.9408l193.4592-34.56c29.6448-8.192 41.8304-22.5024 41.8304-46.592 0-35.5072-35.7632-56.832-106.8288-56.832z m293.2224-94.2592a46.9504 46.9504 0 0 0-46.9504 46.9504v160.6144a46.9504 46.9504 0 1 0 93.9008 0v-160.6144a46.9504 46.9504 0 0 0-46.9504-46.9504z m-146.2528-39.4752a46.9504 46.9504 0 0 0-46.9504 46.9504v60.416c33.664 17.0496 52.8896 45.056 52.8896 83.2 0 23.7312-7.168 43.648-21.12 59.264h15.1808a46.9504 46.9504 0 0 0 46.9504-46.976v-155.904a46.9504 46.9504 0 0 0-46.9504-46.9504z m-293.7344 0a46.9504 46.9504 0 0 0-46.9504 46.9504v45.7984c7.424-2.048 15.104-3.6608 23.1168-4.864l3.328-0.2304h67.4304l0.0256-40.704a46.9504 46.9504 0 0 0-46.9504-46.9504z m146.6624-38.656a46.9504 46.9504 0 0 0-46.9504 46.976v79.3344h47.0528c16.7424 0 32.4096 1.152 46.848 3.4304v-82.7648a46.9504 46.9504 0 0 0-46.9504-46.9504z" p-id="1761"></path></svg>