<?xml version="1.0" standalone="no"?><!DOCTYPE svg PUBLIC "-//W3C//DTD SVG 1.1//EN" "http://www.w3.org/Graphics/SVG/1.1/DTD/svg11.dtd"><svg t="1744271501063" class="icon" viewBox="0 0 1024 1024" version="1.1" xmlns="http://www.w3.org/2000/svg" p-id="1561" xmlns:xlink="http://www.w3.org/1999/xlink" width="200" height="200"><path d="M544.5888 120.7808a82.432 82.432 0 0 1 71.7824 91.8784l-16.6912 135.7568a82.3808 82.3808 0 0 1 98.8928 38.8352 82.432 82.432 0 0 1 126.2592 69.7856v21.3504h0.3328v232.32c0 46.848-22.5536 92.2368-62.6176 139.008-25.4976 29.696-68.5056 47.1808-128.2816 53.9648l-2.6624 0.1536H444.416c-8.192 0-14.464-0.2048-22.8352-1.1008a161.1264 161.1264 0 0 1-36.6848-8.0128 114.4832 114.4832 0 0 1-32.0512-17.0496l-4.7872-3.84c-21.248-17.7408-59.776-57.3696-116.9152-120.064l-2.048-2.56c-19.8656-29.1584-30.2592-54.528-30.2592-77.1328 0-22.7584 10.496-47.7952 31.744-77.6704l63.616-75.3408-15.5136-296.3712a82.432 82.432 0 1 1 164.6592-8.6272l1.92 37.12 7.4752-60.6208a82.432 82.432 0 0 1 91.8528-71.7824z m-45.1072 77.5168l-37.2224 303.104h-51.1488l-14.8224-282.88a35.328 35.328 0 0 0-70.5536 3.6864l19.9424 380.7488H298.496l-0.7168-13.2096-30.0032 35.456c-14.8736 21.0688-21.8368 37.632-21.8368 48.8704 0 10.3936 5.9136 25.728 18.4832 45.184l2.7392 4.1216 29.7984 32.3584c40.3968 43.4688 68.1984 71.3728 82.6112 83.0464l1.9712 1.536c5.2992 4.096 11.6736 7.424 18.9952 9.984 14.2336 4.992 27.8016 6.4256 43.8784 6.4256h185.5232l7.5008-0.9216c41.5488-5.6832 70.144-17.2032 86.272-33.4592l3.072-3.328c33.4336-38.9888 51.2768-74.9056 51.2768-108.288l-0.0256-209.3056h-0.3072v-44.3904a35.328 35.328 0 0 0-70.656 0v44.3904h-49.536l3.84-73.0624a35.328 35.328 0 0 0-30.0544-36.7872l-3.3792-0.3328a35.328 35.328 0 0 0-37.12 33.4336l-4.0448 76.7488h-53.3248L569.6 206.8992a35.328 35.328 0 1 0-70.144-8.6016z" p-id="1562"></path></svg>